# xmcd CD database file
#
# Track frame offsets:
#	150
#	10005
#	27542
#	49255
#	64810
#	83985
#	102405
#	113367
#	133512
#	137650
#	159102
#	184945
#	199455
#	215497
#	236295
#
# Disc length: 3482 seconds
#
# Revision: 1
# Processed by: cddbd v1.5.2PL0 Copyright (c) Steve Scherf et al.
# Submitted via: CDex 1.79
#
DISCID=ca0d980f
DTITLE=Various Artist - "This Is Jazz" The Historic Broadcasts - Vol. 2 - CD 1
DYEAR=1947
DGENRE=Jazz
TTITLE0=Program Introduction
TTITLE1=At The Jazz Band Ball
TTITLE2=Ja Da
TTITLE3=Darktown Strutters' Ball
TTITLE4=Relaxin' At The Touro
TTITLE5=Dinah
TTITLE6=Me Pas Lemme Ca
TTITLE7=Panama
TTITLE8=Program Introduction
TTITLE9=That Da Da Strain
TTITLE10=Riverside Blues
TTITLE11=South Side Shake
TTITLE12=Some Day Sweetheart
TTITLE13=Dusty Bottom
TTITLE14=Fidgety Feet
EXTD=YEAR: 1947
EXTT0=
EXTT1=
EXTT2=
EXTT3=
EXTT4=
EXTT5=
EXTT6=
EXTT7=
EXTT8=
EXTT9=
EXTT10=
EXTT11=
EXTT12=
EXTT13=
EXTT14=
PLAYORDER=
